{"title":"WWE.WrestleMania.29.2013.PPV.1080i.HDTV.x264-StVnChNc","uid":8355686,"size":23516700040,"categoryP":"video","categoryS":"hd___tv_shows","magnet":"?xt=urn:btih:aa004dd74eda02e2180f5ad081c43b19b05fbef4&amp;dn=WWE.WrestleMania.29.2013.PPV.1080i.HDTV.x264-StVnChNc&amp;tr=udp%3A%2F%2Ftracker.openbittorrent.com%3A80&amp;tr=udp%3A%2F%2Fopen.demonii.com%3A1337&amp;tr=udp%3A%2F%2Ftracker.coppersurfer.tk%3A6969&amp;tr=udp%3A%2F%2Fexodus.desync.com%3A6969","seeders":1,"leechers":1,"uploader":"jmz619","files":1,"time":1365489151,"description":"General \nID                                      : 1 (0x1) \nComplete name                            : C:UsersStVnChNcDownloadsWWE.WrestleMania.29.2013.PPV.1080i.HDTV.x264-StVnChNc.ts \nFormat                                  : MPEG-TS \nFile size                                : 21.9 GiB \nDuration                                : 3h 50mn \nOverall bit rate mode                    : Variable \nOverall bit rate                        : 13.6 Mbps \n\nVideo \nID                                      : 100 (0x64) \nMenu ID                                  : 2 (0x2) \nFormat                                  : AVC \nFormat/Info                              : Advanced Video Codec \nFormat profile                          : &lt;a class=&quot;__cf_email__&quot; href=&quot;/cdn-cgi/l/email-protection&quot; data-cfemail=&quot;6f270608072f235b415f&quot;&gt;[email&amp;#160;protected]&lt;/a&gt;&lt;script cf-hash='f9e31' type=&quot;text/javascript&quot;&gt;\n/* &lt;![CDATA[ */!function(){try{var t=&quot;currentScript&quot;in document?document.currentScript:function(){for(var t=document.getElementsByTagName(&quot;script&quot;),e=t.length;e--;)if(t[e].getAttribute(&quot;cf-hash&quot;))return t[e]}();if(t&amp;&amp;t.previousSibling){var e,r,n,i,c=t.previousSibling,a=c.getAttribute(&quot;data-cfemail&quot;);if(a){for(e=&quot;&quot;,r=parseInt(a.substr(0,2),16),n=2;a.length-n;n+=2)i=parseInt(a.substr(n,2),16)^r,e+=String.fromCharCode(i);e=document.createTextNode(e),c.parentNode.replaceChild(e,c)}}}catch(u){}}();/* ]]&gt; */&lt;/script&gt; \nFormat settings, CABAC                  : Yes \nFormat settings, ReFrames                : 2 frames \nFormat settings, GOP                    : M=3, N=15 \nCodec ID                                : 27 \nDuration                                : 3h 50mn \nBit rate mode                            : Variable \nBit rate                                : 12.7 Mbps \nMaximum bit rate                        : 25.9 Mbps \nWidth                                    : 1 920 pixels \nHeight                                  : 1 080 pixels \nDisplay aspect ratio                    : 16:9 \nFrame rate                              : 29.970 fps \nColor space                              : YUV \nChroma subsampling                      : 4:2:0 \nBit depth                                : 8 bits \nScan type                                : Interlaced \nScan order                              : Top Field First \nBits/(Pixel*Frame)                      : 0.204 \nStream size                              : 20.5 GiB (93%) \nColor primaries                          : BT.709 \nTransfer characteristics                : BT.709 \nMatrix coefficients                      : BT.709 \n\nAudio \nID                                      : 101 (0x65) \nMenu ID                                  : 2 (0x2) \nFormat                                  : AAC \nFormat/Info                              : Advanced Audio Codec \nFormat version                          : Version 4 \nFormat profile                          : LC \nMuxing mode                              : ADTS \nCodec ID                                : 15 \nDuration                                : 3h 50mn \nBit rate mode                            : Variable \nBit rate                                : 220 Kbps \nChannel(s)                              : 2 channels \nChannel positions                        : Front: L R \nSampling rate                            : 48.0 KHz \nCompression mode                        : Lossy \nDelay relative to video                  : -178ms \nStream size                              : 363 MiB (2%) \nLanguage                                : usa \n\n\n\n\n\n","torrent":{"xt":"urn:btih:aa004dd74eda02e2180f5ad081c43b19b05fbef4","amp;dn":"WWE.WrestleMania.29.2013.PPV.1080i.HDTV.x264-StVnChNc","amp;tr":["udp%3A%2F%2Ftracker.openbittorrent.com%3A80","udp%3A%2F%2Fopen.demonii.com%3A1337","udp%3A%2F%2Ftracker.coppersurfer.tk%3A6969","udp%3A%2F%2Fexodus.desync.com%3A6969"],"infoHash":"aa004dd74eda02e2180f5ad081c43b19b05fbef4","infoHashBuffer":{"type":"Buffer","data":[170,0,77,215,78,218,2,226,24,15,90,208,129,196,59,25,176,95,190,244]},"announce":[],"urlList":[]}}